<svg xmlns="http://www.w3.org/2000/svg" width="640" height="640" viewBox="0 0 320 320">
<title>公路桥</title>
<desc>桥面、桥墩和水面的构造示意，尺寸与跨度不对应真实工程。 ScanSci AI 辅助原创示意素材。CC BY 4.0，署名 ScanSci。https://creativecommons.org/licenses/by/4.0/</desc>
<g id="bridge" fill="none" stroke="#3e5563" stroke-width="2.5" stroke-linecap="round" stroke-linejoin="round"><g id="river"><path d="M36 252Q105 221 166 249Q231 271 288 246L283 275Q221 298 157 275Q91 250 31 279Z" fill="#a9cdd3" stroke="none"/></g><g id="piers"><rect x="75" y="163" width="25" height="104" rx="0" fill="#b4c4ce"/><rect x="217" y="163" width="25" height="104" rx="0" fill="#b4c4ce"/></g><g id="deck"><path d="M29 134L263 102L292 153L54 187Z" fill="#b4c4ce" /><path d="M29 134L263 102L282 127L47 162Z" fill="#e5ebee" /><path d="M29 134L47 162V181M263 102L282 127V153" fill="none" /></g><g id="road-markings"><path d="M57 141l18 -2.5" fill="none" stroke="#7b8e92" stroke-width="3"/><path d="M90 136.5l18 -2.5" fill="none" stroke="#7b8e92" stroke-width="3"/><path d="M123 132l18 -2.5" fill="none" stroke="#7b8e92" stroke-width="3"/><path d="M156 127.5l18 -2.5" fill="none" stroke="#7b8e92" stroke-width="3"/><path d="M189 123l18 -2.5" fill="none" stroke="#7b8e92" stroke-width="3"/><path d="M222 118.5l18 -2.5" fill="none" stroke="#7b8e92" stroke-width="3"/></g></g>
</svg>
