<svg xmlns="http://www.w3.org/2000/svg" width="640" height="640" viewBox="0 0 320 320">
<title>工厂</title>
<desc>厂房与烟囱示意，未表示污染排放量或生产流程。 ScanSci AI 辅助原创示意素材。CC BY 4.0，署名 ScanSci。https://creativecommons.org/licenses/by/4.0/</desc>
<g id="factory" fill="none" stroke="#3e5563" stroke-width="2.5" stroke-linecap="round" stroke-linejoin="round"><g id="chimney"><rect x="211" y="48" width="28" height="145" rx="0" fill="#aabcc5"/><rect x="208" y="46" width="34" height="10" rx="0" fill="#dce4e6"/></g><g id="building"><path d="M48 144L95 110V145L142 110V145L190 110V269H48Z" fill="#d8e1e2" /><path d="M190 110L263 140V269H190Z" fill="#aabcc5" /></g><g id="windows"><g id="window-0-0"><rect x="65" y="179" width="13" height="18" rx="0" fill="#8cb8c4"/></g><g id="window-1-0"><rect x="89" y="179" width="13" height="18" rx="0" fill="#8cb8c4"/></g><g id="window-2-0"><rect x="113" y="179" width="13" height="18" rx="0" fill="#8cb8c4"/></g><g id="window-3-0"><rect x="137" y="179" width="13" height="18" rx="0" fill="#8cb8c4"/></g><g id="window-0-1"><rect x="65" y="208" width="13" height="18" rx="0" fill="#8cb8c4"/></g><g id="window-1-1"><rect x="89" y="208" width="13" height="18" rx="0" fill="#8cb8c4"/></g><g id="window-2-1"><rect x="113" y="208" width="13" height="18" rx="0" fill="#8cb8c4"/></g><g id="window-3-1"><rect x="137" y="208" width="13" height="18" rx="0" fill="#8cb8c4"/></g></g><g id="entry"><rect x="145" y="230" width="26" height="39" rx="0" fill="#6c8993"/></g></g>
</svg>
